HIERARCHY
ROOT Hips
{
  OFFSET -29.2858 40.1646 51.542
  CHANNELS 6 Xposition Yposition Zposition Zrotation Xrotation Yrotation
  JOINT LeftHip
  {
    OFFSET 3.43 1.42109e-014 -3.9968e-015
    CHANNELS 6 Xposition Yposition Zposition Zrotation Xrotation Yrotation
    JOINT LeftKnee
    {
      OFFSET -2.4869e-014 -18.47 2.19824e-014
      CHANNELS 6 Xposition Yposition Zposition Zrotation Xrotation Yrotation
      JOINT LeftAnkle
      {
        OFFSET -3.55271e-015 -17.95 -4.44089e-015
        CHANNELS 6 Xposition Yposition Zposition Zrotation Xrotation Yrotation
        End Site
        {
          OFFSET 0 -3.12 0
        }
      }
    }
  }
  JOINT RightHip
  {
    OFFSET -3.43 -7.10543e-015 -4.44089e-016
    CHANNELS 6 Xposition Yposition Zposition Zrotation Xrotation Yrotation
    JOINT RightKnee
    {
      OFFSET 1.5099e-014 -18.47 9.23706e-014
      CHANNELS 6 Xposition Yposition Zposition Zrotation Xrotation Yrotation
      JOINT RightAnkle
      {
        OFFSET 1.42109e-014 -17.95 7.10543e-015
        CHANNELS 6 Xposition Yposition Zposition Zrotation Xrotation Yrotation
        End Site
        {
          OFFSET 0 -3.12 0
        }
      }
    }
  }
  JOINT Chest
  {
    OFFSET -6.39488e-014 4.57 -2.17604e-014
    CHANNELS 6 Xposition Yposition Zposition Zrotation Xrotation Yrotation
    JOINT Chest2
    {
      OFFSET 3.55271e-015 6.57 9.76996e-015
      CHANNELS 6 Xposition Yposition Zposition Zrotation Xrotation Yrotation
      JOINT LeftCollar
      {
        OFFSET 1.06 4.19 1.76
        CHANNELS 6 Xposition Yposition Zposition Zrotation Xrotation Yrotation
        JOINT LeftShoulder
        {
          OFFSET 5.81 -3.55271e-014 7.99361e-015
          CHANNELS 6 Xposition Yposition Zposition Zrotation Xrotation Yrotation
          JOINT LeftElbow
          {
            OFFSET -2.84217e-014 -12.08 7.10543e-014
            CHANNELS 6 Xposition Yposition Zposition Zrotation Xrotation Yrotation
            JOINT LeftWrist
            {
              OFFSET -1.42109e-014 -9.82 -8.88178e-016
              CHANNELS 6 Xposition Yposition Zposition Zrotation Xrotation Yrotation
              End Site
              {
                OFFSET 0 -7.37 0
              }
            }
          }
        }
      }
      JOINT RightCollar
      {
        OFFSET -1.06 4.19 1.76
        CHANNELS 6 Xposition Yposition Zposition Zrotation Xrotation Yrotation
        JOINT RightShoulder
        {
          OFFSET -6.06 -1.42109e-014 -3.24185e-014
          CHANNELS 6 Xposition Yposition Zposition Zrotation Xrotation Yrotation
          JOINT RightElbow
          {
            OFFSET 1.42109e-014 -11.08 6.75016e-014
            CHANNELS 6 Xposition Yposition Zposition Zrotation Xrotation Yrotation
            JOINT RightWrist
            {
              OFFSET 0 -9.82 -1.77636e-015
              CHANNELS 6 Xposition Yposition Zposition Zrotation Xrotation Yrotation
              End Site
              {
                OFFSET 0 -7.14001 0
              }
            }
          }
        }
      }
      JOINT Neck
      {
        OFFSET 1.06581e-014 4.05 -5.55112e-015
        CHANNELS 6 Xposition Yposition Zposition Zrotation Xrotation Yrotation
        JOINT Head
        {
          OFFSET 3.55271e-015 5.19 0
          CHANNELS 6 Xposition Yposition Zposition Zrotation Xrotation Yrotation
          End Site
          {
            OFFSET 0 4.14001 0
          }
        }
      }
    }
  }
}
MOTION
Frames:	6
Frame Time:	0.0333333
17.3447 39.2624 -6.06615 1.26888 -0.0332325 -1.05876 3.43 -3.35287e-014 5.9443e-018 3.80874 -5.00299 5.27838 -2.4869e-014 -18.47 -8.02657e-016 1.39333 17.7075 8.61861 -3.55271e-015 -17.95 -4.44089e-015 -7.88714 -11.1165 -0.768742 -3.43 -3.52496e-014 -7.15228e-015 -9.01185 -1.65647 -9.02105 1.5099e-014 -18.47 1.23857e-014 -2.06202 14.5485 -4.04513 1.42109e-014 -17.95 3.37998e-015 10.4259 -10.802 0.988428 -5.30308e-014 4.57 -2.57784e-015 -0.806751 -2.58921 0.556105 3.55271e-015 6.57 9.76996e-015 -0.775412 -2.37582 0.442326 1.06 4.19 1.76 9.82957 0.487837 1.95045 5.81 -1.96935e-014 -3.14818e-015 80.6232 -3.97551 7.73447 2.13756e-014 -12.08 -7.33415e-015 -4.9609 -2.58566 -10.4148 -1.42109e-014 -9.82 -8.88178e-016 -1.03438 -6.36023 -0.0574899 -1.06 4.19 1.76 -9.43299 0.486743 -2.04146 -6.06 2.20239e-014 -1.20961e-014 -84.8368 0.807864 -14.1986 7.13652e-015 -11.08 5.25148e-015 5.50349 -2.61076 16.8151 0 -9.82 -1.77636e-015 -0.161515 -5.83498 -0.00815517 1.06581e-014 4.05 -5.55112e-015 0.248432 16.9162 -0.0332026 3.55271e-015 5.19 0 0.0143097 -3.05472 -0.0129573 
17.357 39.2601 -6.06528 1.29219 -0.0879074 -1.05493 3.43 -1.76525e-013 1.48276e-016 3.77747 -4.97134 5.28153 -2.4869e-014 -18.47 -1.89529e-015 1.37321 17.7529 8.60649 -3.55271e-015 -17.95 -4.44089e-015 -7.8594 -11.1461 -0.768083 -3.43 -1.92096e-013 -7.37221e-015 -9.05235 -1.61306 -9.02187 1.5099e-014 -18.47 1.21318e-014 -2.09675 14.5628 -3.95181 1.42109e-014 -17.95 2.57587e-015 10.4578 -10.8139 0.992563 -5.29888e-014 4.57 -1.57954e-015 -0.784183 -2.58246 0.573425 3.55271e-015 6.57 9.76996e-015 -0.756194 -2.36996 0.457805 1.06 4.19 1.76 10.0306 0.485295 1.95529 5.81 -1.25793e-014 -3.90202e-015 80.2287 -4.02533 7.92992 2.17416e-014 -12.08 -9.73752e-015 -4.79371 -2.58742 -10.4984 -1.42109e-014 -9.82 -8.88178e-016 -0.961616 -6.13634 -0.051559 -1.06 4.19 1.76 -9.61605 0.455059 -1.7096 -6.06 2.68375e-014 -1.17866e-014 -84.5026 1.14536 -14.3492 6.92996e-015 -11.08 4.9401e-015 5.2786 -2.6155 17.1781 0 -9.82 -1.77636e-015 0.0322593 -6.01137 0.00159723 1.06581e-014 4.05 -5.55112e-015 0.158811 16.981 -0.000174447 3.55271e-015 5.19 0 0.13201 -3.14667 -0.0241752 
17.3727 39.2614 -6.06146 1.34382 -0.0729974 -1.18219 3.43 -2.76501e-013 4.79338e-016 3.72806 -4.91494 5.32074 -2.4869e-014 -18.47 -3.85215e-015 1.30309 17.6727 8.73287 -3.55271e-015 -17.95 -4.44089e-015 -7.81802 -11.1325 -0.76309 -3.43 -2.38309e-013 -7.64376e-015 -9.12381 -1.65207 -9.03233 1.5099e-014 -18.47 1.17846e-014 -2.12762 14.5675 -3.79671 1.42109e-014 -17.95 1.59257e-015 10.4741 -10.8177 0.994469 -5.44817e-014 4.57 4.49935e-016 -0.815195 -2.63466 0.698183 3.55271e-015 6.57 9.76996e-015 -0.793765 -2.41733 0.56921 1.06 4.19 1.76 10.032 0.474404 1.83707 5.81 -4.59624e-015 -4.89563e-015 80.1972 -3.98354 7.95007 2.23121e-014 -12.08 -1.44817e-014 -4.75999 -2.58705 -10.5198 -1.42109e-014 -9.82 -8.88178e-016 -0.937241 -5.97568 -0.0488998 -1.06 4.19 1.76 -9.30729 0.501569 -2.18914 -6.06 3.46559e-014 -1.17222e-014 -85.0968 0.594402 -14.1855 6.20038e-015 -11.08 4.62711e-015 5.53687 -2.61086 17.1228 0 -9.82 -1.77636e-015 0.256122 -5.84896 0.0131155 1.06581e-014 4.05 -5.55112e-015 0.194216 16.9568 0.0145907 3.55271e-015 5.19 0 0.336434 -3.03694 -0.0910722 
17.3855 39.2596 -6.06106 1.35892 -0.0483983 -1.22418 3.43 -1.97842e-013 9.97857e-016 3.71596 -4.95235 5.34398 -2.4869e-014 -18.47 -6.65962e-015 1.26059 17.7171 8.74132 -3.55271e-015 -17.95 -4.44089e-015 -7.78201 -11.1696 -0.76211 -3.43 -6.06737e-014 -7.96636e-015 -9.16019 -1.72567 -9.03079 1.5099e-014 -18.47 1.13447e-014 -2.14861 14.609 -3.79849 1.42109e-014 -17.95 4.32582e-016 10.509 -10.8049 0.996612 -5.74277e-014 4.57 3.49559e-015 -0.801781 -2.69265 0.710629 3.55271e-015 6.57 9.76996e-015 -0.782399 -2.47018 0.581073 1.06 4.19 1.76 10.0629 0.472844 1.8253 5.81 4.0848e-015 -6.12546e-015 80.119 -3.94329 7.9588 2.30852e-014 -12.08 -2.15123e-014 -4.71412 -2.58678 -10.8034 -1.42109e-014 -9.82 -8.88178e-016 -1.13621 -5.94156 -0.058972 -1.06 4.19 1.76 -9.3335 0.490937 -2.07055 -6.06 4.52552e-014 -1.18977e-014 -85.0869 0.586861 -14.0348 4.95638e-015 -11.08 4.31254e-015 5.6179 -2.61174 16.6583 0 -9.82 -1.77636e-015 0.20702 -5.83728 0.0105536 1.06581e-014 4.05 -5.55112e-015 0.210037 17.0425 0.0254822 3.55271e-015 5.19 0 0.258735 -3.24214 -0.0679255 
17.3944 39.2591 -6.05892 1.36074 -0.129007 -1.2385 3.43 1.6992e-013 1.70256e-015 3.73672 -4.85536 5.40356 -2.4869e-014 -18.47 -1.03041e-014 1.20614 17.7233 8.61735 -3.55271e-015 -17.95 -4.44089e-015 -7.72638 -11.208 -0.759265 -3.43 1.43802e-013 -8.33944e-015 -9.14439 -1.61622 -8.99071 1.5099e-014 -18.47 1.08127e-014 -2.21548 14.561 -3.77803 1.42109e-014 -17.95 -9.01581e-016 10.5588 -10.7915 1.00012 -6.17447e-014 4.57 7.54241e-015 -0.765258 -2.67034 0.691575 3.55271e-015 6.57 9.76996e-015 -0.747425 -2.44968 0.567363 1.06 4.19 1.76 9.90777 0.471459 1.78315 5.81 1.32929e-014 -7.58796e-015 80.2528 -3.83618 7.8566 2.40592e-014 -12.08 -3.07751e-014 -4.75888 -2.58646 -10.8151 -1.42109e-014 -9.82 -8.88178e-016 -1.13848 -5.93345 -0.0590425 -1.06 4.19 1.76 -9.41549 0.484416 -2.00792 -6.06 5.84114e-014 -1.23075e-014 -84.9968 0.496901 -14.1456 3.20656e-015 -11.08 3.99641e-015 5.56254 -2.61305 16.861 0 -9.82 -1.77636e-015 0.177602 -5.84165 0.00906898 1.06581e-014 4.05 -5.55112e-015 0.0889427 17.0956 0.119651 3.55271e-015 5.19 0 0.435739 -3.39412 -0.062047 
17.4031 39.2609 -6.05405 1.36474 -0.174058 -1.1897 3.43 1.939e-013 2.59216e-015 3.7435 -4.80108 5.43871 -2.4869e-014 -18.47 -1.47719e-014 1.16799 17.6997 8.56728 -3.55271e-015 -17.95 -4.44089e-015 -7.6841 -11.2009 -0.754612 -3.43 2.21989e-013 -8.76242e-015 -9.15359 -1.52682 -9.01503 1.5099e-014 -18.47 1.01893e-014 -2.20654 14.4899 -3.80133 1.42109e-014 -17.95 -2.40741e-015 10.5608 -10.7554 0.996946 -6.73511e-014 4.57 1.25754e-014 -0.740836 -2.65824 0.692839 3.55271e-015 6.57 9.76996e-015 -0.725369 -2.4386 0.570732 1.06 4.19 1.76 9.88148 0.472013 1.78484 5.81 2.2857e-014 -9.27956e-015 80.2941 -3.89553 7.604 2.52321e-014 -12.08 -4.22156e-014 -4.94012 -2.58538 -10.4758 -1.42109e-014 -9.82 -8.88178e-016 -0.87558 -5.86654 -0.0448448 -1.06 4.19 1.76 -9.37418 0.486286 -2.02266 -6.06 7.39006e-014 -1.29462e-014 -85.0588 0.499325 -14.0504 9.59551e-016 -11.08 3.67876e-015 5.59914 -2.61243 16.9835 0 -9.82 -1.77636e-015 0.0778565 -5.84928 0.00399969 1.06581e-014 4.05 -5.55112e-015 0.0444969 17.039 0.0817892 3.55271e-015 5.19 0 0.432668 -3.34128 -0.109999 
